<?xml version="1.0" encoding="UTF-8" standalone="no"?>
<!-- Created with Inkscape (http://www.inkscape.org/) -->

<svg
   xmlns:dc="http://purl.org/dc/elements/1.1/"
   xmlns:cc="http://creativecommons.org/ns#"
   xmlns:rdf="http://www.w3.org/1999/02/22-rdf-syntax-ns#"
   xmlns:svg="http://www.w3.org/2000/svg"
   xmlns="http://www.w3.org/2000/svg"
   xmlns:sodipodi="http://sodipodi.sourceforge.net/DTD/sodipodi-0.dtd"
   xmlns:inkscape="http://www.inkscape.org/namespaces/inkscape"
   width="778.19031"
   height="479.00415"
   id="svg2993"
   version="1.1"
   inkscape:version="0.48.4 r9939"
   sodipodi:docname="canvas.pdf">
  <defs
     id="defs2995">
    <marker
       inkscape:stockid="Arrow2Mstart"
       orient="auto"
       refY="0"
       refX="0"
       id="Arrow2Mstart"
       style="overflow:visible">
      <path
         id="path4076"
         style="fill-rule:evenodd;stroke-width:0.625;stroke-linejoin:round"
         d="M 8.7185878,4.0337352 -2.2072895,0.01601326 8.7185884,-4.0017078 c -1.7454984,2.3720609 -1.7354408,5.6174519 -6e-7,8.035443 z"
         transform="scale(0.6,0.6)"
         inkscape:connector-curvature="0" />
    </marker>
    <marker
       inkscape:stockid="Arrow2Mend"
       orient="auto"
       refY="0"
       refX="0"
       id="Arrow2Mend"
       style="overflow:visible">
      <path
         id="path4079"
         style="fill-rule:evenodd;stroke-width:0.625;stroke-linejoin:round"
         d="M 8.7185878,4.0337352 -2.2072895,0.01601326 8.7185884,-4.0017078 c -1.7454984,2.3720609 -1.7354408,5.6174519 -6e-7,8.035443 z"
         transform="scale(-0.6,-0.6)"
         inkscape:connector-curvature="0" />
    </marker>
    <marker
       inkscape:stockid="Arrow1Lend"
       orient="auto"
       refY="0"
       refX="0"
       id="Arrow1Lend"
       style="overflow:visible">
      <path
         id="path4055"
         d="M 0,0 5,-5 -12.5,0 5,5 0,0 z"
         style="fill-rule:evenodd;stroke:#000000;stroke-width:1pt"
         transform="matrix(-0.8,0,0,-0.8,-10,0)"
         inkscape:connector-curvature="0" />
    </marker>
    <marker
       inkscape:stockid="TriangleOutL"
       orient="auto"
       refY="0"
       refX="0"
       id="TriangleOutL"
       style="overflow:visible">
      <path
         id="path4194"
         d="m 5.77,0 -8.65,5 0,-10 8.65,5 z"
         style="fill-rule:evenodd;stroke:#000000;stroke-width:1pt"
         transform="scale(0.8,0.8)"
         inkscape:connector-curvature="0" />
    </marker>
    <marker
       inkscape:stockid="Arrow2Lend"
       orient="auto"
       refY="0"
       refX="0"
       id="Arrow2Lend"
       style="overflow:visible">
      <path
         id="path4073"
         style="fill-rule:evenodd;stroke-width:0.625;stroke-linejoin:round"
         d="M 8.7185878,4.0337352 -2.2072895,0.01601326 8.7185884,-4.0017078 c -1.7454984,2.3720609 -1.7354408,5.6174519 -6e-7,8.035443 z"
         transform="matrix(-1.1,0,0,-1.1,-1.1,0)"
         inkscape:connector-curvature="0" />
    </marker>
    <inkscape:perspective
       sodipodi:type="inkscape:persp3d"
       inkscape:vp_x="-35.231303 : 191.35144 : 1"
       inkscape:vp_y="0 : 1000 : 0"
       inkscape:vp_z="954.7687 : 191.35144 : 1"
       inkscape:persp3d-origin="459.7687 : 63.851441 : 1"
       id="perspective3006" />
  </defs>
  <sodipodi:namedview
     inkscape:document-units="in"
     pagecolor="#ffffff"
     bordercolor="#666666"
     borderopacity="1.0"
     inkscape:pageopacity="0.0"
     inkscape:pageshadow="2"
     inkscape:zoom="0.70710678"
     inkscape:cx="470.69561"
     inkscape:cy="160.9901"
     inkscape:current-layer="g5894"
     id="namedview2997"
     showgrid="false"
     inkscape:window-width="1918"
     inkscape:window-height="1058"
     inkscape:window-x="0"
     inkscape:window-y="20"
     inkscape:window-maximized="0"
     units="in"
     fit-margin-top="0.05"
     fit-margin-left="0.05"
     fit-margin-right="0.05"
     fit-margin-bottom="0.05" />
  <metadata
     id="metadata2999">
    <rdf:RDF>
      <cc:Work
         rdf:about="">
        <dc:format>image/svg+xml</dc:format>
        <dc:type
           rdf:resource="http://purl.org/dc/dcmitype/StillImage" />
        <dc:title></dc:title>
      </cc:Work>
    </rdf:RDF>
  </metadata>
  <g
     inkscape:label="Layer 1"
     inkscape:groupmode="layer"
     id="layer1"
     style="display:inline"
     transform="translate(-1.1779996,-2.095316)">
    <text
       xml:space="preserve"
       style="font-size:128px;font-style:normal;font-variant:normal;font-weight:500;font-stretch:normal;line-height:125%;letter-spacing:0px;word-spacing:0px;fill:#000000;fill-opacity:1;stroke:none;font-family:CMU Serif;-inkscape-font-specification:CMU Serif Medium"
       x="545.71039"
       y="238.02966"
       id="text3008"
       sodipodi:linespacing="125%"><tspan
         sodipodi:role="line"
         id="tspan3010"
         x="545.71039"
         y="238.02966" /></text>
    <text
       xml:space="preserve"
       style="font-size:144px;font-style:normal;font-variant:normal;font-weight:500;font-stretch:normal;line-height:125%;letter-spacing:0px;word-spacing:0px;fill:#000000;fill-opacity:1;stroke:none;font-family:CMU Serif;-inkscape-font-specification:CMU Serif Medium"
       x="135"
       y="657"
       id="text5828"
       sodipodi:linespacing="125%"><tspan
         sodipodi:role="line"
         id="tspan5830"
         x="135"
         y="657" /></text>
    <flowRoot
       xml:space="preserve"
       id="flowRoot5836"
       style="font-size:144px;font-style:normal;font-variant:normal;font-weight:500;font-stretch:normal;line-height:125%;letter-spacing:0px;word-spacing:0px;fill:#000000;fill-opacity:1;stroke:none;font-family:CMU Serif;-inkscape-font-specification:CMU Serif Medium"><flowRegion
         id="flowRegion5838"><rect
           id="rect5840"
           width="55"
           height="406"
           x="-88"
           y="51" /></flowRegion><flowPara
         id="flowPara5842"></flowPara></flowRoot>    <g
       id="g5894"
       transform="matrix(1.5181112,0,0,1.5181112,-264.02884,-170.03906)">
      <path
         style="fill:none;stroke:#000000;stroke-width:2.47017478;stroke-linecap:butt;stroke-linejoin:miter;stroke-miterlimit:4;stroke-opacity:1;stroke-dasharray:7.41052434,7.41052434;stroke-dashoffset:0;marker-start:url(#Arrow2Mstart);marker-end:url(#Arrow2Mend)"
         d="m 458.14675,300.52416 -266.86463,0"
         id="path3799"
         inkscape:connector-curvature="0" />
      <rect
         y="117.93185"
         x="179.23991"
         height="306.4371"
         width="503.51498"
         id="rect3772"
         style="fill:none;stroke:#000000;stroke-width:3.29356637;stroke-miterlimit:4;stroke-opacity:1;stroke-dasharray:none" />
      <path
         transform="matrix(2.2777778,0,0,2.2777778,-646.70237,-461.82087)"
         d="m 509.01473,334.46771 c 0,5.57289 -4.51771,10.0906 -10.0906,10.0906 -5.57288,0 -10.0906,-4.51771 -10.0906,-10.0906 0,-5.57288 4.51772,-10.0906 10.0906,-10.0906 5.57289,0 10.0906,4.51772 10.0906,10.0906 z"
         sodipodi:ry="10.0906"
         sodipodi:rx="10.0906"
         sodipodi:cy="334.46771"
         sodipodi:cx="498.92413"
         id="path3774"
         style="fill:#d82912;fill-opacity:1;stroke:none"
         sodipodi:type="arc" />
      <path
         inkscape:connector-curvature="0"
         id="path5438"
         d="m 489.40831,270.99306 0,-143.24177"
         style="fill:none;stroke:#000000;stroke-width:2.47017478;stroke-linecap:butt;stroke-linejoin:miter;stroke-miterlimit:4;stroke-opacity:1;stroke-dasharray:7.41052434,7.41052434;stroke-dashoffset:0;marker-start:url(#Arrow2Mstart);marker-end:url(#Arrow2Mend)" />
      <g
         style="font-size:144px;font-style:normal;font-variant:normal;font-weight:500;font-stretch:normal;line-height:125%;letter-spacing:0px;word-spacing:0px;opacity:0.8;fill:#000000;fill-opacity:1;stroke:none;font-family:CMU Serif;-inkscape-font-specification:CMU Serif Medium"
         id="text5848"
         transform="matrix(0.66,0,0,0.66,82.369201,89.045245)">
        <path
           d="m 343.91344,385.58004 c -10e-6,-1.53599 0.47999,-2.78399 1.44,-3.744 0.95999,-0.95999 2.07999,-1.43999 3.36,-1.44 2.17599,10e-6 3.26399,1.02401 3.264,3.072 -10e-6,0.89601 -0.32001,1.82401 -0.96,2.784 -0.57601,0.89601 -1.50401,1.50401 -2.784,1.824 1.08799,0.89601 2.49599,1.344 4.224,1.344 1.34398,0 2.52798,-0.38399 3.552,-1.152 1.08798,-0.76799 1.98398,-1.95199 2.688,-3.552 0.76798,-1.59999 1.34398,-3.00799 1.728,-4.224 0.38398,-1.27999 0.83198,-2.94398 1.344,-4.992 0.76798,-3.13598 1.50398,-6.04798 2.208,-8.736 1.34397,-5.50397 2.01597,-9.02396 2.016,-10.56 -3e-5,-1.91996 -0.41603,-3.39196 -1.248,-4.416 -0.83203,-1.08796 -1.95202,-1.63196 -3.36,-1.632 -2.11202,4e-5 -4.25602,1.02404 -6.432,3.072 -2.11201,2.04804 -3.77601,5.02404 -4.992,8.928 -0.25601,0.76803 -0.44801,1.24803 -0.576,1.44 -0.12801,0.12803 -0.51201,0.19203 -1.152,0.192 -0.96001,3e-5 -1.44001,-0.31997 -1.44,-0.96 -10e-6,-0.63997 0.31999,-1.72797 0.96,-3.264 0.70399,-1.53596 1.63199,-3.16796 2.784,-4.896 1.15199,-1.79196 2.71999,-3.32796 4.704,-4.608 1.98398,-1.34395 4.09598,-2.01595 6.336,-2.016 4.54397,5e-5 7.61597,2.17604 9.216,6.528 0.76797,-1.47196 1.95197,-2.91196 3.552,-4.32 1.59996,-1.47195 3.55196,-2.20795 5.856,-2.208 1.91996,5e-5 3.77595,0.48005 5.568,1.44 1.85595,0.89604 2.78395,2.43204 2.784,4.608 -5e-5,1.66404 -0.51205,2.94404 -1.536,3.84 -1.02405,0.83204 -2.08005,1.24803 -3.168,1.248 -1.15204,3e-5 -2.01604,-0.31996 -2.592,-0.96 -0.51204,-0.63996 -0.76804,-1.34396 -0.768,-2.112 -4e-5,-0.31996 0.032,-0.67196 0.096,-1.056 0.064,-0.44796 0.41596,-1.08796 1.056,-1.92 0.63996,-0.83196 1.53596,-1.37596 2.688,-1.632 -1.02405,-0.89596 -2.43204,-1.34396 -4.224,-1.344 -3.77604,4e-5 -6.59204,3.42404 -8.448,10.272 -1.47203,6.20803 -2.56003,10.59202 -3.264,13.152 -1.21603,5.18402 -1.82403,8.41601 -1.824,9.696 -3e-5,2.24001 0.44797,3.84001 1.344,4.8 0.89597,0.89601 1.95197,1.344 3.168,1.344 2.17597,0 4.31996,-1.02399 6.432,-3.072 2.11196,-2.04799 3.77596,-5.02399 4.992,-8.928 0.25596,-0.76798 0.44796,-1.21598 0.576,-1.344 0.19196,-0.19198 0.57595,-0.28798 1.152,-0.288 0.95995,2e-5 1.43995,0.32002 1.44,0.96 -5e-5,0.57602 -0.32005,1.63202 -0.96,3.168 -0.64005,1.47201 -1.53604,3.10401 -2.688,4.896 -1.15204,1.79201 -2.72004,3.36001 -4.704,4.704 -1.98404,1.344 -4.12803,2.016 -6.432,2.016 -1.72803,0 -3.48803,-0.48 -5.28,-1.44 -1.72803,-0.95999 -3.00802,-2.65599 -3.84,-5.088 -2.49602,4.352 -5.63202,6.528 -9.408,6.528 -2.30401,0 -4.28801,-0.544 -5.952,-1.632 -1.66401,-1.08799 -2.49601,-2.52799 -2.496,-4.32"
           style="font-size:96px;font-style:italic;-inkscape-font-specification:CMU Serif Medium Italic"
           id="path5914"
           inkscape:connector-curvature="0" />
      </g>
      <g
         style="font-size:144px;font-style:normal;font-variant:normal;font-weight:500;font-stretch:normal;line-height:125%;letter-spacing:0px;word-spacing:0px;opacity:0.8;fill:#000000;fill-opacity:1;stroke:none;font-family:CMU Serif;-inkscape-font-specification:CMU Serif Medium"
         id="text5852"
         transform="matrix(0.66,0,0,0.66,117.30163,57.529789)">
        <path
           d="m 591.59453,202.19349 c -10e-6,-0.19197 0.12799,-0.76797 0.384,-1.728 0.25599,-0.95997 0.70399,-2.17597 1.344,-3.648 0.70399,-1.53596 1.47198,-2.97596 2.304,-4.32 0.89598,-1.40796 2.07998,-2.59196 3.552,-3.552 1.47198,-1.02396 3.03998,-1.53596 4.704,-1.536 2.11197,4e-5 3.83997,0.70404 5.184,2.112 1.40797,1.40804 2.11197,3.29604 2.112,5.664 -3e-5,1.28004 -0.41603,3.00803 -1.248,5.184 -3.71203,10.11202 -5.56802,17.12001 -5.568,21.024 -2e-5,4.92801 1.72797,7.392 5.184,7.392 2.55997,0 4.76797,-0.96 6.624,-2.88 1.91996,-1.98399 3.10396,-3.87199 3.552,-5.664 l 7.008,-28.224 c 0.57595,-2.36796 1.82395,-3.55196 3.744,-3.552 0.89595,4e-5 1.56795,0.25604 2.016,0.768 0.44795,0.51204 0.67195,1.08804 0.672,1.728 -5e-5,0.12804 -0.064,0.35204 -0.192,0.672 -0.0641,0.25604 -0.0961,0.48004 -0.096,0.672 l -9.408,37.824 c -1.28004,5.056 -3.93604,9.53599 -7.968,13.44 -4.03203,3.96798 -8.41603,5.95198 -13.152,5.952 -2.68802,-2e-5 -4.89602,-0.76802 -6.624,-2.304 -1.72801,-1.47201 -2.59201,-3.45601 -2.592,-5.952 -10e-6,-1.60001 0.35199,-2.91201 1.056,-3.936 0.70398,-0.96 1.37598,-1.536 2.016,-1.728 0.63998,-0.192 1.24798,-0.288 1.824,-0.288 0.89598,0 1.66398,0.256 2.304,0.768 0.63998,0.57599 0.95998,1.34399 0.96,2.304 -2e-5,0.95999 -0.35202,1.91999 -1.056,2.88 -0.70402,0.95999 -1.72802,1.53599 -3.072,1.728 -0.51202,0.064 -0.76802,0.15999 -0.768,0.288 -2e-5,0.25599 0.15998,0.67199 0.48,1.248 0.31998,0.63999 0.95998,1.27999 1.92,1.92 0.95998,0.63998 2.14398,0.95998 3.552,0.96 2.94397,-2e-5 5.85597,-1.56801 8.736,-4.704 2.87997,-3.07201 5.15196,-8.192 6.816,-15.36 -2.36804,2.368 -5.24803,3.552 -8.64,3.552 -3.00803,0 -5.56802,-0.896 -7.68,-2.688 -2.04802,-1.79199 -3.07202,-4.60799 -3.072,-8.448 -2e-5,-3.58398 1.66398,-9.85598 4.992,-18.816 1.53597,-4.28797 2.30397,-7.16796 2.304,-8.64 -3e-5,-1.85596 -0.70403,-2.78396 -2.112,-2.784 -3.84002,4e-5 -6.81602,4.03204 -8.928,12.096 -0.19202,0.70403 -0.38401,1.15203 -0.576,1.344 -0.19201,0.12803 -0.57601,0.19203 -1.152,0.192 -0.96001,3e-5 -1.44001,-0.31997 -1.44,-0.96"
           style="font-size:96px;font-style:italic;-inkscape-font-specification:CMU Serif Medium Italic"
           id="path5911"
           inkscape:connector-curvature="0" />
      </g>
    </g>
  </g>
</svg>
